#define bat_warn_icon_width 13
#define bat_warn_icon_height 7
static unsigned char bat_warn_icon_bits[] = {
   0xff, 0x0f, 0x01, 0x08, 0x01, 0x18, 0xf5, 0x1b, 0x01, 0x18, 0x01, 0x08,
   0xff, 0x0f };
