#define bat_icon_width 13
#define bat_icon_height 7
static unsigned char bat_icon_bits[] = {
   0xff, 0x0f, 0x01, 0x08, 0x01, 0x18, 0x01, 0x18, 0x01, 0x18, 0x01, 0x08,
   0xff, 0x0f };
