#define bluetooth_width 24
#define bluetooth_height 66
static unsigned char bluetooth_bits[] = {
   0x04, 0x00, 0x00, 0x0c, 0x00, 0x00, 0x14, 0x00, 0x00, 0x25, 0x00, 0x00,
   0x16, 0x00, 0x00, 0x0c, 0x00, 0x00, 0x16, 0x00, 0x00, 0x25, 0x00, 0x00,
   0x14, 0x00, 0x00, 0x0c, 0x00, 0x00, 0x04, 0x00, 0x00, 0x04, 0x00, 0x00,
   0x0c, 0x00, 0x00, 0x14, 0x00, 0x00, 0x25, 0x00, 0x00, 0x16, 0x01, 0x00,
   0x0c, 0x02, 0x00, 0x16, 0x01, 0x00, 0x25, 0x00, 0x00, 0x14, 0x00, 0x00,
   0x0c, 0x00, 0x00, 0x04, 0x00, 0x00, 0x04, 0x00, 0x00, 0x0c, 0x00, 0x00,
   0x14, 0x00, 0x00, 0x25, 0x08, 0x00, 0x16, 0x11, 0x00, 0x0c, 0x12, 0x00,
   0x16, 0x11, 0x00, 0x25, 0x08, 0x00, 0x14, 0x00, 0x00, 0x0c, 0x00, 0x00,
   0x04, 0x00, 0x00, 0x04, 0x00, 0x00, 0x0c, 0x00, 0x00, 0x14, 0x40, 0x00,
   0x25, 0x88, 0x00, 0x16, 0x11, 0x01, 0x0c, 0x12, 0x01, 0x16, 0x11, 0x01,
   0x25, 0x88, 0x00, 0x14, 0x40, 0x00, 0x0c, 0x00, 0x00, 0x04, 0x00, 0x00,
   0x04, 0x00, 0x00, 0x0c, 0x00, 0x02, 0x14, 0x40, 0x04, 0x25, 0x88, 0x08,
   0x16, 0x11, 0x09, 0x0c, 0x12, 0x09, 0x16, 0x11, 0x09, 0x25, 0x88, 0x08,
   0x14, 0x40, 0x04, 0x0c, 0x00, 0x02, 0x04, 0x00, 0x00, 0x04, 0x00, 0x10,
   0x0c, 0x00, 0x22, 0x14, 0x40, 0x44, 0x25, 0x88, 0x88, 0x16, 0x11, 0x89,
   0x0c, 0x12, 0x89, 0x16, 0x11, 0x89, 0x25, 0x88, 0x88, 0x14, 0x40, 0x44,
   0x0c, 0x00, 0x22, 0x04, 0x00, 0x10 };
